<?xml version="1.0" encoding="utf-8"?>
<!-- Generator: Adobe Illustrator 24.2.0, SVG Export Plug-In . SVG Version: 6.00 Build 0)  -->
<svg version="1.1" id="Calque_1" xmlns="http://www.w3.org/2000/svg" xmlns:xlink="http://www.w3.org/1999/xlink" x="0px" y="0px"
	 viewBox="0 0 220 150" style="enable-background:new 0 0 220 150;" xml:space="preserve">
<style type="text/css">
	.st0{fill:#F4B84D;}
	.st1{fill:#1E9B9E;}
	.st2{fill:none;stroke:#1E9B9E;stroke-width:5.8072;stroke-miterlimit:10;}
</style>
<g>
	<circle class="st0" cx="16.7" cy="36.2" r="13.1"/>
	<path class="st1" d="M7.6,53.4c6.5,4,14.7,3.1,19.1-0.5c-4.5,22.8-5.7,65.5-0.2,92c-4-0.7-12.6-0.4-14.8,0
		C15,127.3,12.1,77.7,7.6,53.4z"/>
	<path class="st2" d="M103.5,117.7c1.4,30.5-30.1,43.9-30.2-18.3C73.3,34.7,106,43.9,106,68c-3.6,3.6-28.3,30.6-32.6,41.4"/>
	<path class="st2" d="M64.5,67.4c0-20.5-33.2-32.2-30.9,33.3c2,58,32.3,47.4,30.9,16.9"/>
	<path class="st2" d="M112.3,52c7.7,14.7,10.8,73.1,9.8,92.8"/>
	<path class="st2" d="M139.4,60.8c9-12.1,26-18.9,22.7,0.7c-3.2,19.6-9.3,53.5-9.2,83.4"/>
	<path class="st2" d="M115.7,62.2c8.8-13.6,24.5-19.2,23.7,0.6c-0.9,19.4-1.7,51.1-2.2,82"/>
	<path class="st0" d="M177,144.9c-2.5-0.4-6.3-0.5-9.4,0.1c-2.8-16.7,2.2-83.4,16.6-114.4c-34.3,3.7-25.5,9.8-73.9,13.1
		c3.4-5.6,2.3-13.5-1.4-19c33.2,17.8,63.3,0,107.5-19.6C183.3,45.4,177.2,94.6,177,144.9z"/>
	<path class="st2" d="M38.6,37.1c24.7,7.6,39-8.4,65.3-3.9"/>
</g>
</svg>
